<?xml version="1.0" encoding="UTF-8"?>
<svg version="1.1" xmlns="http://www.w3.org/2000/svg" width="240" height="80">
<path d="M0 0 C5.43621378 4.65802367 9.14970644 9.23246268 9.8984375 16.51953125 C9.99941131 25.67785623 9.16247518 31.20002792 3.0625 38.0625 C-1.33983941 41.91454698 -4.42533532 44.39294861 -10.44921875 44.34765625 C-11.58520508 44.34282227 -11.58520508 44.34282227 -12.74414062 44.33789062 C-13.92266602 44.32532227 -13.92266602 44.32532227 -15.125 44.3125 C-16.32092773 44.30573242 -16.32092773 44.30573242 -17.54101562 44.29882812 C-19.50654257 44.2870585 -21.47203085 44.26912348 -23.4375 44.25 C-23.68395264 44.79938232 -23.93040527 45.34876465 -24.18432617 45.91479492 C-25.31961284 48.42779237 -26.47209661 50.93253876 -27.625 53.4375 C-28.01236328 54.30181641 -28.39972656 55.16613281 -28.79882812 56.05664062 C-31.05710941 60.92780934 -33.11513179 64.86368605 -37.4375 68.25 C-40.46398335 69.15738141 -42.1871807 68.71433133 -45.4375 68.25 C-47.9375 66.8125 -47.9375 66.8125 -49.4375 64.25 C-50.20823306 61.06054368 -50.2130799 58.4420125 -49.4375 55.25 C-47.51114152 52.14803907 -45.07903785 49.75303025 -42.4375 47.25 C-40.97434225 45.85922461 -39.51591934 44.46344933 -38.0625 43.0625 C-37.39476563 42.45019531 -36.72703125 41.83789062 -36.0390625 41.20703125 C-34.15198161 38.90111045 -33.79114268 37.17513014 -33.4375 34.25 C-34.12457031 34.27320313 -34.81164062 34.29640625 -35.51953125 34.3203125 C-36.42058594 34.33835938 -37.32164063 34.35640625 -38.25 34.375 C-39.14332031 34.39820313 -40.03664063 34.42140625 -40.95703125 34.4453125 C-43.4375 34.25 -43.4375 34.25 -46.4375 32.25 C-46.58984375 30.19140625 -46.58984375 30.19140625 -46.375 27.8125 C-46.2323412 25.41508334 -46.2323412 25.41508334 -46.4375 23.25 C-48.37759522 21.54467677 -48.37759522 21.54467677 -50.4375 20.25 C-50.4375 18.25 -50.4375 16.25 -50.4375 14.25 C-51.0975 13.425 -51.7575 12.6 -52.4375 11.75 C-54.4375 9.25 -54.4375 9.25 -54.9375 6.125 C-54.4375 3.25 -54.4375 3.25 -52.953125 1.6015625 C-49.25709759 -0.38419136 -45.82338846 -0.19488772 -41.6875 -0.25 C-35.26433547 -0.44072615 -29.21737633 -1.01283218 -22.9375 -2.375 C-14.5923168 -4.05238182 -7.25232876 -5.14981877 0 0 Z M-26.3125 8.6875 C-30.3842836 13.59759199 -30.87962506 17.26427218 -30.75390625 23.55859375 C-30.15727021 28.63368302 -27.53570164 31.25893998 -23.875 34.5625 C-19.61507353 37.51167987 -15.48199435 37.76787585 -10.4375 37.25 C-4.41842285 35.12561983 -1.62101417 31.47328283 1.875 26.3125 C3.29365709 22.05652873 2.95374533 18.37770711 1.5 14.1875 C-1.69044127 9.35037936 -6.02796029 5.45967711 -11.4375 3.25 C-17.42352583 3.25 -21.73405229 4.8057726 -26.3125 8.6875 Z " fill="#635BE7" transform="translate(55.4375,7.75)"/>
<path d="M0 0 C4.70038353 3.38864859 9.65204148 7.35703237 11.6875 12.9375 C11.98828125 16.3984375 11.98828125 16.3984375 12 20.3125 C12.01675781 21.59898438 12.03351563 22.88546875 12.05078125 24.2109375 C11.4990683 29.87044449 9.32273562 33.73170197 5.3125 37.6875 C4.74789062 38.25984375 4.18328125 38.8321875 3.6015625 39.421875 C-2.25042563 44.05569417 -9.20470405 43.61730131 -16.3125 42.9375 C-22.51990019 41.26009574 -26.87589132 37.2845918 -30.3125 31.9375 C-32.97057213 25.41314114 -33.33510923 18.49442739 -31.25 11.75 C-28.82831088 6.04254488 -24.31580208 3.11591299 -19.125 0.0625 C-12.75709466 -1.81655404 -6.35440022 -2.03820384 0 0 Z M-20.0625 9.5 C-23.22487878 12.92591034 -24.51984959 16.36574862 -25.3125 20.9375 C-24.61082069 26.66788104 -20.74821365 31.39228947 -16.3125 34.9375 C-11.91668365 36.57066788 -8.47430559 36.31732106 -4.0625 34.875 C-0.26827892 32.20179878 2.58621529 29.14006941 4.6875 24.9375 C5.04418624 19.56491353 3.9740955 15.68417655 0.5625 11.5 C-5.91138159 4.88078637 -12.22352349 5.04603608 -20.0625 9.5 Z " fill="#D7DBE0" transform="translate(168.3125,19.0625)"/>
<path d="M0 0 C2.6640625 0.296875 2.6640625 0.296875 4.578125 1.90625 C5.14273438 2.61265625 5.70734375 3.3190625 6.2890625 4.046875 C6.85882813 4.74296875 7.42859375 5.4390625 8.015625 6.15625 C8.55960938 6.86265625 9.10359375 7.5690625 9.6640625 8.296875 C10.22867188 9.00328125 10.79328125 9.7096875 11.375 10.4375 C12.6640625 12.296875 12.6640625 12.296875 12.6640625 14.296875 C13.6540625 14.296875 14.6440625 14.296875 15.6640625 14.296875 C15.9321875 13.72195312 16.2003125 13.14703125 16.4765625 12.5546875 C17.69671114 10.23479962 19.0786177 8.25673492 20.6640625 6.171875 C21.1796875 5.48867188 21.6953125 4.80546875 22.2265625 4.1015625 C23.6640625 2.296875 23.6640625 2.296875 25.6640625 0.296875 C28.2265625 0.109375 28.2265625 0.109375 30.6640625 0.296875 C31.6640625 1.296875 31.6640625 1.296875 32.04296875 3.953125 C31.47387811 8.97520319 28.37095492 11.8183512 25.13085938 15.44140625 C22.84416375 18.15949268 21.68057736 19.75738962 21.5703125 23.359375 C23.28446337 27.96309449 26.44314543 30.94623806 29.73046875 34.515625 C31.98737676 37.761925 32.14807095 39.42480741 31.6640625 43.296875 C30.6640625 44.296875 30.6640625 44.296875 28.390625 44.66015625 C24.54886548 44.14828858 23.48347699 42.4201924 21.0390625 39.484375 C20.28367187 38.59105469 19.52828125 37.69773438 18.75 36.77734375 C18.06164062 35.95878906 17.37328125 35.14023437 16.6640625 34.296875 C15.67827579 33.28286092 14.68497265 32.27551817 13.6640625 31.296875 C12.57738281 32.70453125 12.57738281 32.70453125 11.46875 34.140625 C10.49313995 35.36013757 9.51652432 36.57884615 8.5390625 37.796875 C7.8275 38.72693359 7.8275 38.72693359 7.1015625 39.67578125 C3.43237105 44.18789506 3.43237105 44.18789506 -0.640625 44.765625 C-3.3359375 44.296875 -3.3359375 44.296875 -4.3359375 43.296875 C-4.09684119 37.11893494 -2.07460132 33.91345159 1.7265625 29.359375 C2.19900391 28.77091797 2.67144531 28.18246094 3.15820312 27.57617188 C4.31441617 26.13966476 5.48754972 24.71680422 6.6640625 23.296875 C5.09337564 19.76696296 2.9258448 17.00848806 0.5390625 13.984375 C-3.89051002 8.00084756 -3.89051002 8.00084756 -3.8984375 4.171875 C-3.16079584 0.40170649 -3.16079584 0.40170649 0 0 Z " fill="#D7DADF" transform="translate(72.3359375,17.703125)"/>
<path d="M0 0 C9.9 0 19.8 0 30 0 C30 1.98 30 3.96 30 6 C26.7645883 7.61770585 23.23792649 7.14279662 19.6875 7.125 C18.92759766 7.12886719 18.16769531 7.13273437 17.38476562 7.13671875 C16.64291016 7.13542969 15.90105469 7.13414063 15.13671875 7.1328125 C14.46342529 7.13168457 13.79013184 7.13055664 13.09643555 7.12939453 C11 7 11 7 6 6 C6 9.96 6 13.92 6 18 C11.94 18 17.88 18 24 18 C24 19.98 24 21.96 24 24 C20.93042902 25.02319033 18.77559677 25.13371939 15.5625 25.125 C14.14130859 25.12886719 14.14130859 25.12886719 12.69140625 25.1328125 C10 25 10 25 6 24 C6 27.96 6 31.92 6 36 C7.98 35.505 7.98 35.505 10 35 C11.41720753 34.91161214 12.83785311 34.86941065 14.2578125 34.8671875 C15.04800781 34.86589844 15.83820313 34.86460938 16.65234375 34.86328125 C17.46832031 34.86714844 18.28429687 34.87101562 19.125 34.875 C19.94871094 34.87113281 20.77242187 34.86726563 21.62109375 34.86328125 C27.7466133 34.87330665 27.7466133 34.87330665 30 36 C30 38.31 30 40.62 30 43 C26.92115261 44.02628246 24.7873637 44.12906515 21.5625 44.1328125 C19.97308594 44.13474609 19.97308594 44.13474609 18.3515625 44.13671875 C17.24554688 44.13285156 16.13953125 44.12898438 15 44.125 C13.89398438 44.12886719 12.78796875 44.13273437 11.6484375 44.13671875 C10.58882812 44.13542969 9.52921875 44.13414063 8.4375 44.1328125 C7.46683594 44.13168457 6.49617188 44.13055664 5.49609375 44.12939453 C3 44 3 44 0 43 C0 28.81 0 14.62 0 0 Z " fill="#D5D9DE" transform="translate(107,19)"/>
<path d="M0 0 C2.63671875 0.29296875 2.63671875 0.29296875 4.3671875 1.8671875 C4.84800781 2.56457031 5.32882813 3.26195312 5.82421875 3.98046875 C6.57638672 5.06908203 6.57638672 5.06908203 7.34375 6.1796875 C8.74779562 8.47451736 9.83340174 10.72235433 10.63671875 13.29296875 C14.3686481 9.78056466 17.2137531 6.16746994 20.01171875 1.8671875 C21.63671875 0.29296875 21.63671875 0.29296875 24.26171875 0 C26.63671875 0.29296875 26.63671875 0.29296875 27.63671875 1.29296875 C28.19167239 4.12939846 28.3306356 5.53196157 27.63671875 8.29296875 C25.95703125 10.78125 25.95703125 10.78125 23.82421875 13.48046875 C16.92847209 22.39864287 16.20132305 32.31238861 15.63671875 43.29296875 C12.66671875 43.78796875 12.66671875 43.78796875 9.63671875 44.29296875 C7.44273393 40.73871334 7.37970818 37.7305609 7.26171875 33.60546875 C6.73526374 24.98588325 4.32395845 19.61278583 -0.61328125 12.66796875 C-3.4511008 8.5935175 -4.07816182 6.19500693 -3.36328125 1.29296875 C-2.36328125 0.29296875 -2.36328125 0.29296875 0 0 Z " fill="#D7DADF" transform="translate(209.36328125,17.70703125)"/>
<path d="M0 0 C1.98 0 3.96 0 6 0 C7.50302481 3.00604962 7.12994577 5.77665972 7.1328125 9.125 C7.13376923 9.8277002 7.13472595 10.53040039 7.13571167 11.25439453 C7.13639238 12.74056081 7.1345457 14.22673006 7.13037109 15.71289062 C7.12502125 17.99095319 7.13031972 20.26881859 7.13671875 22.546875 C7.13605795 23.98958377 7.13477675 25.43229242 7.1328125 26.875 C7.13168457 28.19242188 7.13055664 29.50984375 7.12939453 30.8671875 C7 34 7 34 6 36 C6.99966797 35.75636719 6.99966797 35.75636719 8.01953125 35.5078125 C11.61446176 34.89530796 15.0415946 34.86785817 18.6875 34.875 C19.36361328 34.87113281 20.03972656 34.86726563 20.73632812 34.86328125 C25.7465035 34.87325175 25.7465035 34.87325175 28 36 C28 38.31 28 40.62 28 43 C25.04086588 43.98637804 23.08601102 44.1288877 20 44.1328125 C19.030625 44.13410156 18.06125 44.13539062 17.0625 44.13671875 C15.5465625 44.13091797 15.5465625 44.13091797 14 44.125 C12.989375 44.12886719 11.97875 44.13273437 10.9375 44.13671875 C9.968125 44.13542969 8.99875 44.13414063 8 44.1328125 C6.6696875 44.13112061 6.6696875 44.13112061 5.3125 44.12939453 C3 44 3 44 0 43 C0 28.81 0 14.62 0 0 Z " fill="#D7DAE0" transform="translate(183,19)"/>
<path d="M0 0 C0.99 0.66 1.98 1.32 3 2 C2.33676265 6.91575917 0.33719776 11.05703124 -1.75 15.5 C-2.08515625 16.24636719 -2.4203125 16.99273437 -2.765625 17.76171875 C-4.88983272 22.30784512 -7.01384126 25.78979681 -11 29 C-14.02648335 29.90738141 -15.7496807 29.46433133 -19 29 C-21.5 27.5625 -21.5 27.5625 -23 25 C-23.77087766 21.80994529 -23.7833654 19.19129396 -23 16 C-21.04644691 12.91573709 -18.63036011 10.51369091 -16 8 C-15.46375 7.43023437 -14.9275 6.86046875 -14.375 6.2734375 C-6.37784035 -2.18189275 -6.37784035 -2.18189275 0 0 Z " fill="#5349CF" transform="translate(29,47)"/>
</svg>
